<?xml version="1.0" encoding="UTF-8"?>
<!DOCTYPE svg PUBLIC "-//W3C//DTD SVG 1.1//EN" "http://www.w3.org/Graphics/SVG/1.1/DTD/svg11.dtd">
<!-- Creator: CorelDRAW X7 -->
<svg xmlns="http://www.w3.org/2000/svg" xml:space="preserve" width="70px" height="38px" version="1.1" style="shape-rendering:geometricPrecision; text-rendering:geometricPrecision; image-rendering:optimizeQuality; fill-rule:evenodd; clip-rule:evenodd"
viewBox="0 0 728441 392232"
 xmlns:xlink="http://www.w3.org/1999/xlink">
 <defs>
  <style type="text/css">
   <![CDATA[
    .fil0 {fill:none}
    .fil1 {fill:white;fill-rule:nonzero}
   ]]>
  </style>
 </defs>
 <g id="Layer_x0020_1">
  <metadata id="CorelCorpID_0Corel-Layer"/>
  <rect class="fil0" x="3" y="1" width="728432" height="392230"/>
  <g id="_925709536">
   <g id="_1536036416">
    <polygon class="fil1" points="249245,127385 131179,127385 132391,128698 181724,132093 185508,136786 240998,136786 "/>
    <polygon class="fil1" points="227974,151701 179317,151701 180007,152627 200107,155049 202709,158403 222175,158403 "/>
    <polygon class="fil1" points="237452,140919 153872,140919 154712,141848 191370,144276 194134,147618 231641,147618 "/>
    <polygon class="fil1" points="563342,63085 445276,63085 446488,64401 498361,67790 505322,72486 563354,72486 "/>
    <polygon class="fil1" points="563398,87397 514744,87397 515434,88329 533198,90751 538136,94105 563531,94105 "/>
    <polygon class="fil1" points="563357,76622 467960,76622 468809,77551 516685,79973 521779,83318 563469,83318 "/>
    <path class="fil1" d="M209694 183706l48820 -56182 47276 0 -10321 57790 11991 0 -3805 22418 -12375 0 -3787 20918 -32068 0 3516 -20918 -53318 0 4071 -24026 0 0zm32436 1443l0 0 20466 162 5487 -30926 -25953 30764 0 0z"/>
    <polygon class="fil1" points="319525,127258 412255,127258 407618,153928 377692,153928 364760,228647 331321,228647 344536,153928 314885,153928 "/>
    <path class="fil1" d="M515269 194998l3788 -22023 45374 0 -9971 55949 -21070 0 274 -9805c-8796,8180 -19619,12274 -32451,12274 -12920,0 -23011,-3690 -30271,-11083 -7259,-7392 -10891,-16988 -10891,-28775l136 -6310 982 -5481c2806,-15902 9596,-28964 20378,-39158 5531,-5239 11802,-9198 18828,-11859 7015,-2666 14794,-4000 23319,-4000 4596,0 8522,295 11802,912 3274,605 6702,1746 10260,3428 6179,2808 10955,7002 14327,12563 3374,5560 5059,12224 5059,19985l0 563 -31513 0c-1033,-8454 -6000,-12693 -14920,-12693 -14623,0 -23121,12864 -25460,38584 0,12380 5767,18566 17327,18566 3569,0 7301,-1091 11197,-3265 3900,-2163 6546,-4968 7965,-8372l-14466 0 -3 0z"/>
    <path class="fil1" d="M636949 124727c14885,0 25988,3930 33301,11776 3454,3755 6227,8248 8277,13484 935,2531 1646,5183 2109,7929 475,2761 708,5835 708,9203l0 5322 -566 4345c-1407,9463 -4835,18404 -10328,26820 -5480,8418 -12799,15162 -21985,20215 -9176,5044 -19350,7572 -30492,7572 -15076,0 -26289,-3997 -33640,-12000 -7351,-8000 -11032,-17885 -11032,-29681l422 -3935 413 -4625 428 -4074c1967,-9826 5466,-18501 10536,-26041 5047,-7534 12154,-13797 21286,-18799 9133,-5006 19316,-7511 30560,-7511l3 0zm-4637 24758l0 0c-14421,0 -22946,12564 -25572,37684 0,12976 5210,19466 15587,19466 8245,0 14619,-3956 19112,-11846 4501,-7876 6752,-16446 6752,-25696 0,-6071 -1289,-10853 -3876,-14360 -2575,-3484 -6575,-5248 -12003,-5248l0 0z"/>
    <path class="fil1" d="M722777 236237l-590386 0 2835 5129 72902 1809c-6714,5448 -11009,13758 -11009,23088 0,16421 13301,29731 29728,29731 16419,0 29729,-13310 29729,-29731 0,-8805 -3850,-16693 -9927,-22139l27440 682c-5646,5410 -9171,13014 -9171,21457 0,16421 13306,29731 29725,29731 16425,0 29725,-13310 29725,-29731 0,-7912 -3103,-15083 -8144,-20410l194794 4817c-2796,4543 -4445,9870 -4445,15593 0,16421 13304,29731 29731,29731 16422,0 29729,-13310 29729,-29731 0,-5192 -1334,-10077 -3673,-14322l79229 1965c-1722,3767 -2705,7944 -2705,12357 0,16421 13295,29731 29726,29731 16418,0 29722,-13310 29722,-29731 0,-3900 -764,-7602 -2130,-11006l22690 563c0,0 10472,-13861 3882,-19583l3 0z"/>
    <path class="fil1" d="M581059 120081c0,0 -7445,4835 -8082,-141 -629,-4977 0,-39448 0,-39448 0,0 6878,-3749 6973,0 80,3743 1109,39589 1109,39589l0 0z"/>
    <path class="fil1" d="M574493 63153l117951 0c0,0 8867,634 10133,7601 540,2924 13572,30667 16189,61935 3610,43383 7631,93554 7631,93554 0,0 -18242,8592 -18876,-13590 -325,-11404 696,-47628 637,-80539 -53,-31065 -11717,-59183 -15711,-60731 -8242,-3168 -106547,5708 -111615,2534 -5068,-3163 -10130,-2534 -6339,-10764z"/>
    <g>
     <polygon class="fil1" points="275794,335123 275794,315115 268602,315115 268602,312369 286094,312369 286094,315115 278903,315115 278903,335123 "/>
     <path class="fil1" d="M302693 335123l0 -10197c0,-1637 -248,-2773 -743,-3386 -499,-614 -1357,-930 -2575,-930 -1505,0 -2700,428 -3587,1275 -888,855 -1331,2000 -1331,3439l0 9799 -2790 0 0 -22754 2790 0 0 8522c502,-900 1198,-1579 2086,-2045 876,-475 1914,-702 3097,-702 1245,0 2292,183 3147,564 853,374 1514,941 1977,1690 259,401 442,876 557,1413 112,546 171,1401 171,2578l0 788 0 9949 -2799 0 0 -3z"/>
     <path class="fil1" d="M324003 329764l2743 0c-298,1831 -1094,3274 -2378,4321 -1295,1065 -2920,1587 -4876,1587 -2301,0 -4115,-773 -5448,-2318 -1327,-1549 -1994,-3643 -1994,-6319 0,-2817 658,-5021 1982,-6611 1316,-1584 3139,-2377 5460,-2377 2381,0 4224,734 5528,2195 1304,1463 1953,3522 1953,6188 0,337 0,581 -3,758 -9,163 -18,322 -38,475l-11985 0c35,1744 469,3101 1303,4059 847,953 2003,1431 3496,1431 1133,0 2080,-298 2820,-879 740,-584 1215,-1425 1437,-2507l0 -3zm-9062 -4440l0 0 9109 0c-9,-1537 -407,-2720 -1183,-3557 -776,-835 -1873,-1251 -3301,-1251 -1372,0 -2454,410 -3242,1227 -790,823 -1250,2015 -1383,3581l0 0z"/>
     <polygon class="fil1" points="350492,335123 350492,315115 343306,315115 343306,312369 360793,312369 360793,315115 353601,315115 353601,335123 "/>
     <path class="fil1" d="M364055 335123l0 -16527 2708 0 0 2929c437,-1101 1042,-1921 1791,-2475 761,-546 1690,-820 2787,-820 210,0 360,0 452,9 91,9 183,14 274,35l0 2920c-74,-14 -156,-23 -248,-23 -91,-12 -227,-12 -416,-12 -1483,0 -2607,401 -3386,1212 -782,815 -1171,1989 -1171,3537l0 9215 -2791 0 0 0z"/>
     <path class="fil1" d="M380477 318596l0 10135c0,1626 254,2752 767,3381 510,637 1377,947 2587,947 1611,0 2823,-464 3652,-1405 826,-943 1233,-2324 1233,-4159l0 -8899 2793 0 0 16527 -2663 0 0 -2471c-581,949 -1325,1672 -2239,2156 -915,481 -1994,731 -3227,731 -1157,0 -2157,-200 -3009,-593 -856,-386 -1505,-946 -1962,-1666 -259,-401 -442,-867 -554,-1407 -107,-546 -169,-1398 -169,-2578l0 -782 0 -9917 2788 0 3 0z"/>
     <path class="fil1" d="M409884 324091c-80,-1139 -490,-2000 -1221,-2610 -738,-611 -1735,-915 -3009,-915 -1502,0 -2655,540 -3469,1620 -817,1079 -1227,2622 -1227,4631 0,2017 392,3566 1182,4655 782,1094 1894,1637 3337,1637 1292,0 2324,-334 3103,-1009 776,-673 1262,-1646 1445,-2926l2658 0c-150,2032 -864,3610 -2147,4749 -1292,1130 -3021,1702 -5189,1702 -2266,0 -4041,-779 -5330,-2327 -1301,-1555 -1938,-3688 -1938,-6396 0,-2764 669,-4932 2017,-6504 1345,-1569 3198,-2354 5555,-2354 2071,0 3740,546 4991,1631 1242,1089 1911,2555 1994,4416l-2749 0 -3 0z"/>
     <polygon class="fil1" points="418677,335123 418677,312369 421468,312369 421468,326017 428948,318596 432453,318596 426258,324634 432364,335123 429226,335123 424388,326560 421468,329365 421468,335123 "/>
     <path class="fil1" d="M450355 335123l0 -22754 3387 0 10640 16527c233,360 442,702 616,1024 180,321 322,619 422,891l0 -18442 2926 0 0 22754 -3348 0 -10858 -16760c-168,-260 -322,-523 -457,-809 -142,-271 -272,-572 -396,-873l0 18442 -2932 0z"/>
     <path class="fil1" d="M487196 329764l2743 0c-301,1831 -1094,3274 -2381,4321 -1286,1065 -2911,1587 -4873,1587 -2300,0 -4115,-773 -5451,-2318 -1324,-1549 -1988,-3643 -1988,-6319 0,-2817 655,-5021 1973,-6611 1328,-1584 3145,-2377 5466,-2377 2381,0 4225,734 5531,2195 1298,1463 1956,3522 1956,6188 0,337 -3,581 -12,758 -6,163 -15,322 -35,475l-11979 0c32,1744 463,3101 1303,4059 841,953 2000,1431 3493,1431 1139,0 2080,-298 2817,-879 738,-584 1221,-1425 1437,-2507l0 -3zm-9068 -4440l0 0 9112 0c-15,-1537 -404,-2720 -1183,-3557 -770,-835 -1870,-1251 -3298,-1251 -1372,0 -2451,410 -3242,1227 -796,823 -1253,2015 -1389,3581z"/>
     <path class="fil1" d="M499800 330973c0,749 106,1245 319,1490 209,247 602,371 1159,371 165,0 369,-6 599,-8 230,-18 528,-33 900,-62l0 2342c-461,91 -879,141 -1245,186 -369,44 -696,64 -982,64 -1310,0 -2228,-256 -2756,-761 -525,-495 -787,-1392 -787,-2678l0 -11124 -2487 0 0 -2194 2487 0 0 -4626 2793 0 0 4626 2974 0 0 2194 -2974 0 0 10180 0 0z"/>
     <polygon class="fil1" points="511608,335123 506670,318596 509555,318596 513054,331233 516278,318596 519532,318596 522809,331233 526419,318596 529284,318596 524245,335123 521452,335123 517897,322395 514405,335123 "/>
     <path class="fil1" d="M533924 326829c0,-2764 696,-4924 2074,-6469 1383,-1543 3333,-2313 5828,-2313 2511,0 4463,767 5853,2307 1389,1542 2085,3696 2085,6475 0,2775 -693,4941 -2073,6486 -1387,1546 -3331,2310 -5835,2310 -2513,0 -4457,-764 -5853,-2301 -1383,-1546 -2076,-3702 -2076,-6495l-3 0zm2840 0l0 0c0,2044 443,3613 1316,4699 879,1085 2130,1622 3770,1622 1628,0 2867,-537 3732,-1622 864,-1086 1300,-2655 1300,-4699 0,-2036 -436,-3596 -1300,-4685 -865,-1079 -2104,-1628 -3732,-1628 -1646,0 -2909,549 -3776,1619 -876,1080 -1310,2652 -1310,4694l0 0z"/>
     <path class="fil1" d="M556298 335123l0 -16527 2699 0 0 2929c443,-1101 1047,-1921 1797,-2475 758,-546 1690,-820 2793,-820 201,0 354,0 449,9 94,9 185,14 274,35l0 2920c-68,-14 -151,-23 -245,-23 -97,-12 -230,-12 -419,-12 -1475,0 -2607,401 -3389,1212 -776,815 -1168,1989 -1168,3537l0 9215 -2788 0 -3 0z"/>
     <polygon class="fil1" points="569968,335123 569968,312369 572764,312369 572764,326017 580242,318596 583752,318596 577555,324634 583664,335123 580516,335123 575687,326560 572764,329365 572764,335123 "/>
    </g>
    <path class="fil1" d="M728108 305820c-54767,31156 -130099,53111 -215452,60613 -23395,2392 -47572,3658 -72333,3658 -13442,0 -26699,-381 -39764,-1104 -155084,-12238 -276979,-78707 -295637,-162089 -1699,-7369 -2596,-14847 -2596,-22443 0,-9887 1493,-19592 4363,-29073 22552,-76439 97014,-127503 238190,-151742 8681,-1189 17468,-2239 26395,-3103 -26316,888 -51923,3023 -76599,6286 -30931,3649 -59551,9324 -85618,16767 -124506,33058 -209054,97603 -209054,171827 0,101486 158063,184880 360215,194426 17168,1209 34690,1852 52501,1852 130650,0 245938,-33651 314669,-84940 596,-525 1560,-1121 720,-935z"/>
    <polygon class="fil1" points="425046,127161 420362,153739 453523,153739 458205,127161 "/>
    <polygon class="fil1" points="407205,228558 440358,228558 452459,160234 419305,160234 "/>
   </g>
  </g>
 </g>
</svg>
